<svg width="105" height="24" viewBox="0 0 105 24" fill="none" xmlns="http://www.w3.org/2000/svg">
<path d="M20 18H4M20 12H4M20 6H4" stroke="black" stroke-width="2" stroke-linecap="round"/>
<path d="M37.0568 18V9.27273H39.0227V10.7557H39.125C39.3068 10.2557 39.608 9.86553 40.0284 9.58523C40.4489 9.30114 40.9508 9.15909 41.5341 9.15909C42.125 9.15909 42.6231 9.30303 43.0284 9.59091C43.4375 9.875 43.7254 10.2633 43.892 10.7557H43.983C44.1761 10.2708 44.5019 9.88447 44.9602 9.59659C45.4223 9.30492 45.9697 9.15909 46.6023 9.15909C47.4053 9.15909 48.0606 9.41288 48.5682 9.92045C49.0758 10.428 49.3295 11.1686 49.3295 12.142V18H47.267V12.4602C47.267 11.9186 47.1231 11.5227 46.8352 11.2727C46.5473 11.0189 46.1951 10.892 45.7784 10.892C45.2822 10.892 44.8939 11.0473 44.6136 11.358C44.3371 11.6648 44.1989 12.0644 44.1989 12.5568V18H42.1818V12.375C42.1818 11.9242 42.0455 11.5644 41.7727 11.2955C41.5038 11.0265 41.1515 10.892 40.7159 10.892C40.4205 10.892 40.1515 10.9678 39.9091 11.1193C39.6667 11.267 39.4735 11.4773 39.3295 11.75C39.1856 12.0189 39.1136 12.3333 39.1136 12.6932V18H37.0568ZM55.0998 18.1705C54.2248 18.1705 53.4691 17.9886 52.8328 17.625C52.2002 17.2576 51.7135 16.7386 51.3726 16.0682C51.0316 15.3939 50.8612 14.6004 50.8612 13.6875C50.8612 12.7898 51.0316 12.0019 51.3726 11.3239C51.7173 10.642 52.1983 10.1117 52.8157 9.73295C53.4332 9.35038 54.1585 9.15909 54.9919 9.15909C55.5298 9.15909 56.0373 9.24621 56.5146 9.42045C56.9957 9.59091 57.4199 9.85606 57.7873 10.2159C58.1585 10.5758 58.4502 11.0341 58.6623 11.5909C58.8745 12.1439 58.9805 12.803 58.9805 13.5682V14.1989H51.8271V12.8125H57.0089C57.0051 12.4186 56.9199 12.0682 56.7532 11.7614C56.5866 11.4508 56.3536 11.2064 56.0544 11.0284C55.7589 10.8504 55.4142 10.7614 55.0203 10.7614C54.5998 10.7614 54.2305 10.8636 53.9123 11.0682C53.5941 11.2689 53.346 11.5341 53.168 11.8636C52.9938 12.1894 52.9048 12.5473 52.901 12.9375V14.1477C52.901 14.6553 52.9938 15.0909 53.1794 15.4545C53.365 15.8144 53.6245 16.0909 53.9578 16.2841C54.2911 16.4735 54.6813 16.5682 55.1282 16.5682C55.4275 16.5682 55.6983 16.5265 55.9407 16.4432C56.1832 16.3561 56.3934 16.2292 56.5714 16.0625C56.7495 15.8958 56.8839 15.6894 56.9748 15.4432L58.8953 15.6591C58.7741 16.1667 58.543 16.6098 58.2021 16.9886C57.865 17.3636 57.4332 17.6553 56.9066 17.8636C56.3801 18.0682 55.7779 18.1705 55.0998 18.1705ZM62.5974 12.8864V18H60.5406V9.27273H62.5065V10.7557H62.6087C62.8095 10.267 63.1296 9.87879 63.569 9.59091C64.0122 9.30303 64.5595 9.15909 65.211 9.15909C65.8133 9.15909 66.3379 9.28788 66.7849 9.54545C67.2356 9.80303 67.5841 10.1761 67.8303 10.6648C68.0803 11.1534 68.2034 11.7462 68.1997 12.4432V18H66.1428V12.7614C66.1428 12.178 65.9913 11.7216 65.6883 11.392C65.3891 11.0625 64.9743 10.8977 64.444 10.8977C64.0841 10.8977 63.7641 10.9773 63.4837 11.1364C63.2072 11.2917 62.9894 11.517 62.8303 11.8125C62.675 12.108 62.5974 12.4659 62.5974 12.8864ZM75.6731 14.3295V9.27273H77.7299V18H75.7356V16.4489H75.6447C75.4477 16.9375 75.1238 17.3371 74.6731 17.6477C74.2261 17.9583 73.675 18.1136 73.0197 18.1136C72.4477 18.1136 71.942 17.9867 71.5026 17.733C71.067 17.4754 70.7261 17.1023 70.4799 16.6136C70.2337 16.1212 70.1106 15.5265 70.1106 14.8295V9.27273H72.1674V14.5114C72.1674 15.0644 72.3189 15.5038 72.6219 15.8295C72.925 16.1553 73.3227 16.3182 73.8151 16.3182C74.1181 16.3182 74.4117 16.2443 74.6958 16.0966C74.9799 15.9489 75.2128 15.7292 75.3947 15.4375C75.5803 15.142 75.6731 14.7727 75.6731 14.3295ZM84.9547 12.3068V14H79.7161V12.3068H84.9547ZM91.2165 18.2216C90.2809 18.2216 89.4778 17.9848 88.8074 17.5114C88.1407 17.0341 87.6275 16.3466 87.2676 15.4489C86.9116 14.5473 86.7335 13.4621 86.7335 12.1932C86.7373 10.9242 86.9172 9.8447 87.2733 8.95455C87.6331 8.06061 88.1464 7.37879 88.8131 6.90909C89.4835 6.43939 90.2847 6.20455 91.2165 6.20455C92.1483 6.20455 92.9494 6.43939 93.6199 6.90909C94.2903 7.37879 94.8036 8.06061 95.1597 8.95455C95.5195 9.84848 95.6994 10.928 95.6994 12.1932C95.6994 13.4659 95.5195 14.553 95.1597 15.4545C94.8036 16.3523 94.2903 17.0379 93.6199 17.5114C92.9532 17.9848 92.1521 18.2216 91.2165 18.2216ZM91.2165 16.4432C91.9437 16.4432 92.5176 16.0852 92.9381 15.3693C93.3623 14.6496 93.5744 13.5909 93.5744 12.1932C93.5744 11.2689 93.4778 10.4924 93.2847 9.86364C93.0915 9.23485 92.8187 8.76136 92.4665 8.44318C92.1142 8.12121 91.6975 7.96023 91.2165 7.96023C90.493 7.96023 89.921 8.32008 89.5006 9.03977C89.0801 9.75568 88.868 10.8068 88.8642 12.1932C88.8604 13.1212 88.9532 13.9015 89.1426 14.5341C89.3358 15.1667 89.6085 15.6439 89.9608 15.9659C90.3131 16.2841 90.7316 16.4432 91.2165 16.4432ZM102.14 6.36364V18H100.032V8.41477H99.964L97.2424 10.1534V8.22159L100.134 6.36364H102.14Z" fill="black"/>
</svg>
